<svg width="14" height="14" viewBox="0 0 14 14" fill="none" xmlns="http://www.w3.org/2000/svg">
<path fill-rule="evenodd" clip-rule="evenodd" d="M1.77747 6.53706L2.45164 5.86289C2.76563 5.54889 3.27472 5.54889 3.58872 5.86289C3.88029 6.15446 3.90112 6.61425 3.6512 6.92985L3.58872 6.99998L2.91455 7.67415C1.97256 8.61614 1.97256 10.1434 2.91455 11.0854C3.8229 11.9938 5.27547 12.0262 6.22269 11.1827L6.32581 11.0854L6.99998 10.4112C7.31397 10.0972 7.82306 10.0972 8.13706 10.4112C8.42863 10.7028 8.44946 11.1626 8.19954 11.4782L8.13706 11.5483L7.46289 12.2225C5.8929 13.7925 3.34745 13.7925 1.77747 12.2225C0.248794 10.6938 0.208566 8.24034 1.65678 6.663L1.77747 6.53706ZM6.53706 1.77747C8.10705 0.207479 10.6525 0.207479 12.2225 1.77747C13.7925 3.34745 13.7925 5.8929 12.2225 7.46289L11.5483 8.13706C11.2343 8.45106 10.7252 8.45106 10.4112 8.13706C10.0972 7.82306 10.0972 7.31397 10.4112 6.99998L11.0854 6.32581C12.0274 5.38381 12.0274 3.85654 11.0854 2.91455C10.1434 1.97256 8.61614 1.97256 7.67415 2.91455L6.99998 3.58872C6.68598 3.90272 6.17689 3.90272 5.86289 3.58872C5.54889 3.27472 5.54889 2.76563 5.86289 2.45164L6.53706 1.77747ZM7.33706 5.52581C7.65106 5.21181 8.16015 5.21181 8.47415 5.52581C8.78814 5.8398 8.78814 6.34889 8.47415 6.66289L6.66289 8.47415C6.34889 8.78814 5.8398 8.78814 5.52581 8.47415C5.21181 8.16015 5.21181 7.65106 5.52581 7.33706L7.33706 5.52581Z" fill="#6B7280"/>
</svg>
