<svg width="14" height="14" viewBox="0 0 14 14" fill="none" xmlns="http://www.w3.org/2000/svg">
<path fill-rule="evenodd" clip-rule="evenodd" d="M6.99998 0.599976C7.4418 0.599976 7.79998 0.958148 7.79998 1.39998V6.19998H12.6C13.0418 6.19998 13.4 6.55815 13.4 6.99998C13.4 7.4418 13.0418 7.79998 12.6 7.79998H7.79998V12.6C7.79998 13.0418 7.4418 13.4 6.99998 13.4C6.55815 13.4 6.19998 13.0418 6.19998 12.6V7.79998H1.39998C0.958148 7.79998 0.599976 7.4418 0.599976 6.99998C0.599976 6.55815 0.958148 6.19998 1.39998 6.19998H6.19998V1.39998C6.19998 0.958148 6.55815 0.599976 6.99998 0.599976Z" fill="#6B7280"/>
</svg>
